<svg id="Component_1_1" data-name="Component 1 – 1" xmlns="http://www.w3.org/2000/svg"
    width="244.245" height="42.878" viewBox="0 0 244.245 42.878">
    <text id="Ayman_Kaddoura" data-name="Ayman Kaddoura" transform="translate(70.245 30.939)"
        fill="#1f1f1f" font-size="24" font-family="SegoeUI-Bold, Segoe UI" font-weight="700"
        letter-spacing="-0.03em">
        <tspan x="0" y="0">Ayman </tspan>
        <tspan y="0" font-family="SegoeUI-Light, Segoe UI" font-weight="300">Kaddoura</tspan>
    </text>
    <path id="Path_3" data-name="Path 3"
        d="M-199.465,365.518h-25.047L-226,362.762l-1.327-2.465-4.66-8.646-3.038-5.641-6.509-12.079-2.507,4.651-11.7,21.715h13.019l5.191-9.631,3.038,5.641-2.149,3.99-2.814,5.22h-25.182l2.814-5.22,14.742-27.361,2.507-4.651,3.042-5.646,3.042,5.646,6.509,12.083,3.038,5.641,5.987,11.106,1.711,3.181h12.88l-5.111-9.488-3.042-5.646,3.042-5.646,4.373-8.115h-11.97l-1.428,2.654-3.724,6.91-3.038-5.646,2.111-3.918,1.609-2.991,1.2-2.233h24.129l-2.814,5.224-7.411,13.756,8.153,15.138Z"
        transform="translate(264.635 -322.64)" fill="#1f1f1f" />
</svg>
  